<?xml version="1.0" standalone="no"?>
<!DOCTYPE svg PUBLIC "-//W3C//DTD SVG 20010904//EN"
 "http://www.w3.org/TR/2001/REC-SVG-20010904/DTD/svg10.dtd">
<svg version="1.0" xmlns="http://www.w3.org/2000/svg"
 width="260.000000pt" height="260.000000pt" viewBox="0 0 260.000000 260.000000"
 preserveAspectRatio="xMidYMid meet">
<metadata>
Created by potrace 1.14, written by Peter Selinger 2001-2017
</metadata>
<g transform="translate(0.000000,260.000000) scale(0.100000,-0.100000)"
fill="#000000" stroke="none">
<path d="M858 1595 c-116 -29 -218 -95 -353 -228 -124 -121 -189 -151 -265
-120 -81 33 -95 126 -23 154 30 11 63 -11 63 -42 0 -30 28 -11 40 27 23 68
-33 126 -122 127 -125 1 -199 -90 -194 -239 5 -138 66 -218 204 -266 55 -19
87 -23 182 -23 69 1 131 6 155 14 40 14 323 133 450 191 100 45 184 64 290 64
61 0 121 -2 135 -6 14 -3 39 -9 55 -13 64 -16 153 -53 375 -155 149 -69 234
-92 355 -96 153 -5 269 34 335 115 77 92 77 278 1 365 -54 61 -175 68 -235 13
-37 -35 -38 -77 -1 -122 20 -25 23 -26 19 -8 -6 23 26 63 51 63 23 0 55 -41
55 -72 0 -44 -26 -85 -61 -97 -76 -26 -124 -6 -232 96 -155 148 -250 211 -376
249 -174 54 -330 7 -438 -129 l-22 -28 -37 41 c-105 115 -258 163 -406 125z"/>
</g>
</svg>
